<svg width="825" height="139" viewBox="0 0 825 139" fill="none" xmlns="http://www.w3.org/2000/svg">
<path d="M172.306 104V34.5H206.406V41.9L180.706 41.6L180.106 65.2L203.306 65.1V72.2H180.206L180.606 104H172.306ZM221.906 104V45.8H227.206L228.306 51.7H228.906C228.906 51.7 229.406 51.3333 230.406 50.6C231.473 49.8667 232.84 49.0333 234.506 48.1C236.173 47.1667 237.94 46.3333 239.806 45.6C241.74 44.8667 243.54 44.5 245.206 44.5C246.206 44.5 247.14 44.6 248.006 44.8C248.873 44.9333 249.306 45 249.306 45L248.606 53C248.606 53 248.173 52.9667 247.306 52.9C246.44 52.8333 245.64 52.8 244.906 52.8C243.04 52.8 241.14 53.0667 239.206 53.6C237.34 54.1333 235.606 54.8 234.006 55.6C232.406 56.4 231.14 57.1667 230.206 57.9V104H221.906ZM280.195 105.4C275.595 105.4 271.528 104.433 267.995 102.5C264.528 100.5 261.828 97.2667 259.895 92.8C257.961 88.2667 256.995 82.2667 256.995 74.8C256.995 67 257.995 60.9 259.995 56.5C262.061 52.1 264.828 49 268.295 47.2C271.761 45.3333 275.661 44.4 279.995 44.4C284.328 44.4 287.995 45.2667 290.995 47C294.061 48.7333 296.395 51.6333 297.995 55.7C299.595 59.7 300.395 65.1 300.395 71.9V78.2H265.795C265.595 82.2667 265.761 85.5 266.295 87.9C266.828 90.2333 267.461 92.0333 268.195 93.3C268.928 94.5 269.561 95.3333 270.095 95.8C271.895 97.4 274.661 98.2 278.395 98.2C280.995 98.2 283.495 97.9667 285.895 97.5C288.295 96.9667 290.428 96.4 292.295 95.8C294.228 95.1333 295.695 94.6667 296.695 94.4L298.795 101.1C298.195 101.367 297.028 101.867 295.295 102.6C293.561 103.267 291.395 103.9 288.795 104.5C286.261 105.1 283.395 105.4 280.195 105.4ZM268.995 55.6C266.861 58.4667 265.795 63.7667 265.795 71.5L291.895 71C291.895 67.1333 291.728 63.8333 291.395 61.1C291.128 58.3 290.528 56.1333 289.595 54.6C289.128 53.8667 288.328 53.2 287.195 52.6C286.061 51.9333 283.861 51.6 280.595 51.6C277.195 51.6 274.628 51.9667 272.895 52.7C271.228 53.4333 269.928 54.4 268.995 55.6ZM337.324 105.4C332.724 105.4 328.657 104.433 325.124 102.5C321.657 100.5 318.957 97.2667 317.024 92.8C315.09 88.2667 314.124 82.2667 314.124 74.8C314.124 67 315.124 60.9 317.124 56.5C319.19 52.1 321.957 49 325.424 47.2C328.89 45.3333 332.79 44.4 337.124 44.4C341.457 44.4 345.124 45.2667 348.124 47C351.19 48.7333 353.524 51.6333 355.124 55.7C356.724 59.7 357.524 65.1 357.524 71.9V78.2H322.924C322.724 82.2667 322.89 85.5 323.424 87.9C323.957 90.2333 324.59 92.0333 325.324 93.3C326.057 94.5 326.69 95.3333 327.224 95.8C329.024 97.4 331.79 98.2 335.524 98.2C338.124 98.2 340.624 97.9667 343.024 97.5C345.424 96.9667 347.557 96.4 349.424 95.8C351.357 95.1333 352.824 94.6667 353.824 94.4L355.924 101.1C355.324 101.367 354.157 101.867 352.424 102.6C350.69 103.267 348.524 103.9 345.924 104.5C343.39 105.1 340.524 105.4 337.324 105.4ZM326.124 55.6C323.99 58.4667 322.924 63.7667 322.924 71.5L349.024 71C349.024 67.1333 348.857 63.8333 348.524 61.1C348.257 58.3 347.657 56.1333 346.724 54.6C346.257 53.8667 345.457 53.2 344.324 52.6C343.19 51.9333 340.99 51.6 337.724 51.6C334.324 51.6 331.757 51.9667 330.024 52.7C328.357 53.4333 327.057 54.4 326.124 55.6ZM385.053 104L385.353 78.1L365.653 34.5H374.753L389.053 69.3H389.653L403.853 34.5H412.953L393.253 78.1L393.553 104H385.053ZM441.388 105.3C435.854 105.3 431.488 104.067 428.288 101.6C425.154 99.1333 422.921 95.6333 421.588 91.1C420.254 86.5667 419.588 81.1667 419.588 74.9C419.588 68.6333 420.254 63.2333 421.588 58.7C422.921 54.1667 425.154 50.6667 428.288 48.2C431.488 45.7333 435.854 44.5 441.388 44.5C446.921 44.5 451.254 45.7333 454.388 48.2C457.588 50.6667 459.854 54.1667 461.188 58.7C462.521 63.2333 463.188 68.6333 463.188 74.9C463.188 81.1667 462.521 86.5667 461.188 91.1C459.854 95.6333 457.588 99.1333 454.388 101.6C451.254 104.067 446.921 105.3 441.388 105.3ZM441.388 98.1C443.921 98.1 446.021 97.8 447.688 97.2C449.421 96.6 450.788 95.5 451.788 93.9C452.854 92.3 453.588 89.9667 453.988 86.9C454.454 83.8333 454.688 79.8333 454.688 74.9C454.688 69.9667 454.454 65.9667 453.988 62.9C453.588 59.8333 452.854 57.5 451.788 55.9C450.788 54.2333 449.421 53.1333 447.688 52.6C446.021 52 443.921 51.7 441.388 51.7C438.854 51.7 436.721 52 434.988 52.6C433.321 53.1333 431.954 54.2333 430.888 55.9C429.888 57.5 429.154 59.8333 428.688 62.9C428.221 65.9667 427.988 69.9667 427.988 74.9C427.988 79.8333 428.221 83.8333 428.688 86.9C429.154 89.9667 429.888 92.3 430.888 93.9C431.954 95.5 433.321 96.6 434.988 97.2C436.721 97.8 438.854 98.1 441.388 98.1ZM493.605 105.3C490.938 105.3 488.472 104.667 486.205 103.4C484.005 102.067 482.238 99.9 480.905 96.9C479.638 93.9 479.005 89.7667 479.005 84.5V45.8H487.305V81.4C487.305 85.0667 487.405 88.0667 487.605 90.4C487.805 92.7333 488.172 94.3667 488.705 95.3C489.172 96.0333 489.905 96.5667 490.905 96.9C491.972 97.2333 493.172 97.4 494.505 97.4C497.505 97.4 500.472 96.8333 503.405 95.7C506.405 94.5 509.205 93.3 511.805 92.1V45.8H520.105V104H514.505L513.505 98.4H512.905C511.905 98.9333 510.405 99.7667 508.405 100.9C506.405 101.967 504.138 102.967 501.605 103.9C499.072 104.833 496.405 105.3 493.605 105.3ZM540.266 104V45.8H545.566L546.666 51.7H547.266C547.266 51.7 547.766 51.3333 548.766 50.6C549.832 49.8667 551.199 49.0333 552.866 48.1C554.532 47.1667 556.299 46.3333 558.166 45.6C560.099 44.8667 561.899 44.5 563.566 44.5C564.566 44.5 565.499 44.6 566.366 44.8C567.233 44.9333 567.666 45 567.666 45L566.966 53C566.966 53 566.533 52.9667 565.666 52.9C564.799 52.8333 563.999 52.8 563.266 52.8C561.399 52.8 559.499 53.0667 557.566 53.6C555.699 54.1333 553.966 54.8 552.366 55.6C550.766 56.4 549.499 57.1667 548.566 57.9V104H540.266ZM594.219 105.4C591.486 105.4 588.852 105.067 586.319 104.4C583.786 103.8 581.519 103.067 579.519 102.2C577.586 101.333 576.052 100.6 574.919 100C573.786 99.3333 573.219 99 573.219 99C573.219 99 573.352 98.6667 573.619 98C573.952 97.2667 574.319 96.4667 574.719 95.6C575.119 94.6667 575.452 93.8667 575.719 93.2C576.052 92.5333 576.219 92.2 576.219 92.2C576.219 92.2 576.752 92.5 577.819 93.1C578.952 93.6333 580.452 94.2667 582.319 95C584.186 95.6667 586.319 96.3 588.719 96.9C591.119 97.4333 593.619 97.7 596.219 97.7C597.886 97.7 599.186 97.5667 600.119 97.3C601.119 96.9667 601.819 96.6667 602.219 96.4C603.552 95.4667 604.586 94.2 605.319 92.6C606.052 90.9333 606.419 88.8 606.419 86.2C606.419 83.6667 605.886 81.5667 604.819 79.9C603.752 78.2333 602.319 76.8333 600.519 75.7C598.786 74.5667 596.886 73.5667 594.819 72.7C592.152 71.5667 589.652 70.4333 587.319 69.3C584.986 68.1667 582.919 66.8667 581.119 65.4C579.319 63.9333 577.919 62.1 576.919 59.9C575.919 57.6333 575.419 54.8333 575.419 51.5C575.419 48.0333 576.186 44.9333 577.719 42.2C579.252 39.4 581.552 37.2 584.619 35.6C587.686 33.9333 591.486 33.1 596.019 33.1C598.952 33.1 601.652 33.3 604.119 33.7C606.586 34.0333 608.552 34.4 610.019 34.8C611.552 35.1333 612.319 35.3 612.319 35.3L610.919 42.5C610.919 42.5 610.086 42.3667 608.419 42.1C606.819 41.7667 604.752 41.4667 602.219 41.2C599.686 40.8667 597.019 40.7 594.219 40.7C592.552 40.7 591.219 40.8 590.219 41C589.286 41.2 588.452 41.5333 587.719 42C586.852 42.4667 586.019 43.4333 585.219 44.9C584.486 46.3 584.119 48.2333 584.119 50.7C584.119 53.4333 584.819 55.6667 586.219 57.4C587.619 59.1333 589.452 60.5667 591.719 61.7C593.986 62.7667 596.386 63.8333 598.919 64.9C601.586 65.9667 604.152 67.2667 606.619 68.8C609.086 70.2667 611.119 72.2667 612.719 74.8C614.319 77.3333 615.119 80.7667 615.119 85.1C615.119 89.1667 614.219 92.7333 612.419 95.8C610.686 98.8 608.252 101.167 605.119 102.9C601.986 104.567 598.352 105.4 594.219 105.4ZM645.993 105.4C643.127 105.4 640.627 104.933 638.493 104C636.36 103 634.693 101.133 633.493 98.4C632.36 95.6 631.793 91.4667 631.793 86V55.7H625.193V50.5L632.093 49.1L634.293 35.5H640.093V49.2H651.693V55.9H640.093V86.6C640.093 90.2667 640.193 92.9333 640.393 94.6C640.593 96.2667 641.093 97.3333 641.893 97.8C642.76 98.2 644.193 98.4 646.193 98.4C647.793 98.4 649.093 98.3667 650.093 98.3C651.093 98.2333 651.593 98.2 651.593 98.2V104.9C651.593 104.9 651.093 104.967 650.093 105.1C649.093 105.3 647.727 105.4 645.993 105.4ZM680.519 105.3C677.852 105.3 675.386 104.667 673.119 103.4C670.919 102.067 669.152 99.9 667.819 96.9C666.552 93.9 665.919 89.7667 665.919 84.5V45.8H674.219V81.4C674.219 85.0667 674.319 88.0667 674.519 90.4C674.719 92.7333 675.086 94.3667 675.619 95.3C676.086 96.0333 676.819 96.5667 677.819 96.9C678.886 97.2333 680.086 97.4 681.419 97.4C684.419 97.4 687.386 96.8333 690.319 95.7C693.319 94.5 696.119 93.3 698.719 92.1V45.8H707.019V104H701.419L700.419 98.4H699.819C698.819 98.9333 697.319 99.7667 695.319 100.9C693.319 101.967 691.052 102.967 688.519 103.9C685.986 104.833 683.319 105.3 680.519 105.3ZM728.58 104V55.6H722.08V50.5L728.58 49.2C728.647 41.3333 730.213 35.7333 733.28 32.4C736.413 29.0667 740.58 27.4 745.78 27.4C746.78 27.4 747.947 27.4333 749.28 27.5C750.68 27.5667 751.38 27.6 751.38 27.6L750.78 34.6C750.78 34.6 750.313 34.6 749.38 34.6C748.513 34.5333 747.513 34.5 746.38 34.5C745.313 34.4333 744.447 34.4 743.78 34.4C741.98 34.4 740.58 34.7667 739.58 35.5C738.58 36.1667 737.88 37.5667 737.48 39.7C737.08 41.7667 736.847 44.9333 736.78 49.2H749.58V55.9H736.88V104H728.58ZM762.369 104V55.6H755.869V50.5L762.369 49.2C762.436 41.3333 764.002 35.7333 767.069 32.4C770.202 29.0667 774.369 27.4 779.569 27.4C780.569 27.4 781.736 27.4333 783.069 27.5C784.469 27.5667 785.169 27.6 785.169 27.6L784.569 34.6C784.569 34.6 784.102 34.6 783.169 34.6C782.302 34.5333 781.302 34.5 780.169 34.5C779.102 34.4333 778.236 34.4 777.569 34.4C775.769 34.4 774.369 34.7667 773.369 35.5C772.369 36.1667 771.669 37.5667 771.269 39.7C770.869 41.7667 770.636 44.9333 770.569 49.2H783.369V55.9H770.669V104H762.369Z" fill="white"/>
<path d="M68.8 18L112.4 43V96L68.8 121L25.3 96V43L68.8 18Z" stroke="white" stroke-width="6" stroke-miterlimit="10"/>
<path d="M25.3 43L69.5 68L113.7 43" stroke="white" stroke-width="6" stroke-miterlimit="10"/>
<path d="M89 29L47.4 55.5" stroke="white" stroke-width="6" stroke-miterlimit="10"/>
<path d="M69.5 68V121" stroke="white" stroke-width="6" stroke-miterlimit="10"/>
</svg>
